<?xml version="1.0" encoding="utf-8"?>
<!-- Generator: Adobe Illustrator 27.1.0, SVG Export Plug-In . SVG Version: 6.00 Build 0)  -->
<svg version="1.1" id="Ebene_1" xmlns="http://www.w3.org/2000/svg" xmlns:xlink="http://www.w3.org/1999/xlink" x="0px" y="0px"
	 viewBox="0 0 694.1 694.1" style="enable-background:new 0 0 694.1 694.1;" xml:space="preserve">
<style type="text/css">
	.st0{fill:#B09000;}
	.st1{fill:#FFFFFF;}
	.st2{fill:#1D1D1B;}
</style>
<path class="st1" d="M347,26c-85.8,0-166.4,33.4-227,94S26,261.3,26,347s33.4,166.4,94,227s141.3,94,227,94s166.4-33.4,227-94
	s94-141.3,94-227s-33.4-166.4-94-227S432.8,26,347,26z"/>
<path class="st2" d="M347,694.1c-46.9,0-92.3-9.2-135.1-27.3c-41.3-17.5-78.4-42.5-110.3-74.4s-56.9-69-74.4-110.3
	C9.2,439.3,0,393.9,0,347S9.2,254.7,27.3,212c17.5-41.3,42.5-78.4,74.4-110.3s69-56.9,110.3-74.4C254.8,9.2,300.2,0,347,0
	s92.3,9.2,135.1,27.3c41.3,17.5,78.4,42.5,110.3,74.4s56.9,69,74.4,110.3c18.1,42.8,27.3,88.2,27.3,135.1s-9.2,92.3-27.3,135.1
	c-17.5,41.3-42.5,78.4-74.4,110.3s-69,56.9-110.3,74.4C439.3,684.9,393.9,694.1,347,694.1L347,694.1z M347,26
	c-85.8,0-166.4,33.4-227,94S26,261.3,26,347s33.4,166.4,94,227s141.3,94,227,94s166.4-33.4,227-94s94-141.3,94-227
	s-33.4-166.4-94-227S432.8,26,347,26z"/>
<path d="M240.5,251.1h-31.7V122.6c-36.6,23.5-63.4,51.1-75.7,66.6v75.8h107.4v364.1c-57.8-25.7-104.6-61.5-139.1-109.8V313.1h31.7
	v195.2c16.1,24.7,42,47.8,75.7,67.4V296H101.4V178.7l2-2.8c21.2-29.9,81-77.9,137.1-106.5L240.5,251.1L240.5,251.1L240.5,251.1z"/>
<path d="M440.6,65.7v565c-26.1,14-50.6,20.5-91,20.5s-58.2-4.1-96.6-19.2V66.7l31.7-8.9v548c13.9,7.5,30.1,11.8,47.8,12.4V265h31.7
	v353.2c15.9,0,32.8-3.6,44.6-9.3V56.2L440.6,65.7L440.6,65.7L440.6,65.7z"/>
<path d="M581.6,279.6l4.8-6.2V165.2c-26.3-32.5-65.6-70.6-118.3-90.7l-14.6-5.6v556.9c75.3-32,106.8-64.2,139.9-107.8V290.4
	L581.6,279.6L581.6,279.6L581.6,279.6z M485.2,118.7c28.7,15.8,48.9,31,69.5,57.8V265h-69.5L485.2,118.7L485.2,118.7L485.2,118.7z
	 M561.7,508.2c-16.3,21.4-38.2,42.7-76.5,61.6V296h76.5V508.2L561.7,508.2z"/>
</svg>
