<?xml version="1.0" encoding="UTF-8"?>
<svg id="Ebene_1" data-name="Ebene 1" xmlns="http://www.w3.org/2000/svg" viewBox="0 0 694.09 694.09">
  <defs>
    <style>
      .cls-1 {
        fill: #fff;
      }

      .cls-2 {
        fill: #1d1d1b;
      }
    </style>
  </defs>
  <path class="cls-1" d="m347.06,12.65c-89.32,0-173.3,34.78-236.45,97.94C47.46,173.75,12.66,257.72,12.66,347.05s34.78,173.3,97.94,236.45,147.13,97.94,236.45,97.94,173.3-34.78,236.45-97.94,97.94-147.13,97.94-236.45-34.78-173.3-97.94-236.45c-63.16-63.15-147.12-97.95-236.44-97.95Z"/>
  <path class="cls-2" d="m347.05,694.09c-46.85,0-92.3-9.18-135.09-27.28-41.33-17.48-78.44-42.5-110.31-74.37-31.87-31.87-56.89-68.98-74.37-110.31C9.18,439.34,0,393.89,0,347.05s9.18-92.3,27.28-135.09c17.48-41.33,42.5-78.44,74.37-110.31,31.87-31.87,68.98-56.89,110.31-74.37C254.75,9.18,300.2,0,347.05,0s92.3,9.18,135.09,27.28c41.33,17.48,78.44,42.5,110.31,74.37,31.87,31.87,56.89,68.98,74.37,110.31,18.1,42.79,27.28,88.25,27.28,135.09s-9.18,92.3-27.28,135.09c-17.48,41.33-42.5,78.44-74.37,110.31s-68.98,56.89-110.31,74.37c-42.79,18.1-88.25,27.28-135.09,27.28h0Zm0-668.1c-85.75,0-166.38,33.39-227.01,94.03S26,261.29,26,347.05s33.39,166.38,94.03,227.01,141.26,94.03,227.01,94.03,166.38-33.39,227.01-94.03,94.03-141.26,94.03-227.01-33.39-166.38-94.03-227.01S432.8,26,347.05,26Z"/>
  <path d="m240.51,251.11h-31.72V122.56c-36.64,23.54-63.44,51.1-75.68,66.57v75.81h107.41v364.15c-57.84-25.74-104.56-61.45-139.12-109.81v-206.13h31.72v195.16c16.09,24.74,42.01,47.8,75.68,67.39v-279.71h-107.41v-117.27l1.99-2.8c21.21-29.95,80.97-77.94,137.14-106.52v181.7h0Z"/>
  <path d="m440.56,65.65v564.95c-26.14,13.95-50.56,20.46-90.97,20.46s-58.24-4.06-96.58-19.23V66.67l31.72-8.86v547.95c13.94,7.52,30.15,11.81,47.81,12.43v-353.23h31.72v353.23c15.86.04,32.81-3.56,44.58-9.33V56.25l31.72,9.4h-.01.01Z"/>
  <path d="m581.63,279.57l4.81-6.19v-108.19c-26.27-32.51-65.64-70.55-118.34-90.7l-14.62-5.58v556.87c75.26-32.05,106.79-64.16,139.93-107.83v-227.53l-11.77-10.84h-.01Zm-96.44-160.85c28.67,15.75,48.91,31.02,69.52,57.77v88.46h-69.52V118.73h0Zm76.48,389.44c-16.35,21.39-38.25,42.72-76.48,61.62v-273.79h76.48v212.17h0Z"/>
</svg>